<?xml version="1.0" encoding="UTF-8" standalone="no"?>
<!DOCTYPE svg PUBLIC "-//W3C//DTD SVG 20010904//EN"
              "http://www.w3.org/TR/2001/REC-SVG-20010904/DTD/svg10.dtd">

<svg xmlns="http://www.w3.org/2000/svg"
     width="55" height="66"
     viewBox="0 0 55 66">
  <path id="logo"
        fill="black" stroke="black" stroke-width="1"
        d="M 24.00,4.00
           C 25.63,8.12 25.07,16.34 25.00,21.00
             24.87,28.66 21.88,28.51 22.74,31.99
             23.86,36.54 29.86,37.58 31.60,32.90
             32.74,29.83 30.01,28.06 29.27,24.83
             28.45,21.24 28.68,7.32 30.00,4.00
             30.00,4.00 42.63,22.00 42.63,22.00
             44.49,24.52 48.15,28.82 48.17,32.00
             48.18,34.51 45.44,38.75 44.15,41.00
             42.63,43.65 39.29,50.21 36.62,51.43
             33.68,52.77 18.88,52.40 16.39,50.40
             14.54,48.92 11.58,43.29 10.28,41.00
             9.01,38.77 6.18,34.45 6.15,32.00
             6.11,28.86 9.79,24.48 11.63,22.00
             11.63,22.00 24.00,4.00 24.00,4.00 Z
           M 40.00,65.00
           C 40.00,65.00 22.00,65.00 22.00,65.00
             18.44,64.95 12.45,65.01 12.45,60.00
             12.45,55.16 17.47,55.05 21.00,55.00
             21.00,55.00 40.00,55.00 40.00,55.00
             40.00,55.00 40.00,59.00 40.00,59.00
             40.00,59.00 16.00,59.00 16.00,59.00
             16.00,59.00 16.00,61.00 16.00,61.00
             16.00,61.00 40.00,61.00 40.00,61.00
             40.00,61.00 40.00,65.00 40.00,65.00 Z" />
</svg>
