<?xml version="1.0" encoding="UTF-8" standalone="no"?>
<!DOCTYPE svg PUBLIC "-//W3C//DTD SVG 20010904//EN"
              "http://www.w3.org/TR/2001/REC-SVG-20010904/DTD/svg10.dtd">

<svg xmlns="http://www.w3.org/2000/svg"
     width="100px" height="100px"
     viewBox="0 0 55 66">
  <defs>
    <linearGradient id="fillGradient" x1="0%" y1="100%" x2="100%" y2="0%">
      <stop offset="0%" style="stop-color:#aa896f; stop-opacity:1" />
      <stop offset="25%" style="stop-color:#aa896f; stop-opacity:1" />
      <stop offset="50%" style="stop-color:#aa896f; stop-opacity:1" />
      <stop offset="75%" style="stop-color:#c4b09b; stop-opacity:1" />
      <stop offset="100%" style="stop-color:#d2c4b3; stop-opacity:1" />
    </linearGradient>
    <linearGradient id="strokeGradient" x1="0%" y1="100%" x2="100%" y2="0%">
      <stop offset="0%" style="stop-color:#aa896f; stop-opacity:1" />
      <stop offset="25%" style="stop-color:#aa896f; stop-opacity:1" />
      <stop offset="50%" style="stop-color:#aa896f; stop-opacity:1" />
      <stop offset="75%" style="stop-color:#d2c4b3; stop-opacity:1" />
      <stop offset="100%" style="stop-color:#d2c4b3; stop-opacity:1" />
    </linearGradient>
  </defs>
  <path id="選択範囲"
        fill="url(#fillGradient)" stroke="url(#strokeGradient)" stroke-width="1"
        d="M 24.91,3.73
           C 24.73,13.18 24.98,22.25 24.91,26.91
             22.18,28.18 21.78,29.97 22.64,33.45
             25.45,36.91 28.18,38.00 31.73,33.27
             32.87,30.21 32.18,29.55 29.18,26.27
             29.09,20.27 29.00,13.18 29.18,3.82
             29.18,3.82 42.63,22.00 42.63,22.00
             44.49,24.52 45.83,26.27 48.82,31.00
             46.91,35.91 45.44,38.75 44.15,41.00
             42.63,43.65 42.27,44.36 37.45,51.55
             29.00,51.82 25.73,52.27 17.18,51.82
             13.45,45.73 11.58,43.29 10.28,41.00
             9.01,38.77 6.09,35.55 5.27,30.36
             10.76,23.55 11.16,23.21 13.00,20.73
             13.00,20.73 24.91,3.73 24.91,3.73 Z
           M 40.00,65.00
           C 40.00,65.00 22.00,65.00 22.00,65.00
             18.44,64.95 12.45,65.01 12.45,60.00
             12.45,55.16 17.47,55.05 21.00,55.00
             21.00,55.00 40.00,55.00 40.00,55.00
             40.00,55.00 40.00,59.00 40.00,59.00
             40.00,59.00 16.00,59.00 16.00,59.00
             16.00,59.00 16.00,61.00 16.00,61.00
             16.00,61.00 40.00,61.00 40.00,61.00
             40.00,61.00 40.00,65.00 40.00,65.00 Z" />
</svg>
