<?xml version="1.0" encoding="UTF-8" standalone="no"?>
<!DOCTYPE svg PUBLIC "-//W3C//DTD SVG 20010904//EN"
              "http://www.w3.org/TR/2001/REC-SVG-20010904/DTD/svg10.dtd">

<svg xmlns="http://www.w3.org/2000/svg"
     width="105.6px" height="24px"
     viewBox="0 0 286 65">
  <path id="logo-straight-with-title"
        fill="black" stroke="black" stroke-width="1"
        d="M 23.00,3.00
           C 24.63,7.12 24.07,15.34 24.00,20.00
             23.87,27.66 20.88,27.51 21.74,30.99
             22.86,35.54 28.86,36.58 30.60,31.90
             31.74,28.83 29.01,27.06 28.27,23.83
             27.45,20.24 27.68,6.32 29.00,3.00
             29.00,3.00 41.63,21.00 41.63,21.00
             43.49,23.52 47.15,27.82 47.17,31.00
             47.18,33.51 44.44,37.75 43.15,40.00
             41.63,42.65 38.29,49.21 35.62,50.43
             32.68,51.77 17.88,51.40 15.39,49.40
             13.54,47.92 10.58,42.29 9.28,40.00
             8.01,37.77 5.18,33.45 5.15,31.00
             5.11,27.86 8.79,23.48 10.63,21.00
             10.63,21.00 23.00,3.00 23.00,3.00 Z
           M 230.00,8.00
           C 230.00,8.00 235.00,8.00 235.00,8.00
             235.00,8.00 235.00,51.00 235.00,51.00
             235.00,51.00 230.00,49.00 230.00,49.00
             227.09,50.36 224.31,51.85 221.00,51.80
             205.98,51.59 206.17,22.41 220.00,19.40
             223.74,18.58 226.62,19.59 230.00,21.00
             230.00,21.00 230.00,8.00 230.00,8.00 Z
           M 123.00,42.00
           C 128.04,45.07 135.02,50.24 140.94,46.26
             142.42,45.27 143.84,43.73 144.34,41.98
             145.75,37.18 140.79,34.36 137.00,33.17
             129.33,30.76 121.26,28.55 123.98,18.00
             125.98,10.23 133.99,8.42 141.00,9.17
             143.07,9.39 146.66,9.99 148.01,11.72
             149.18,13.23 148.98,16.16 149.00,18.00
             145.52,15.90 141.29,12.89 137.00,13.32
             133.12,13.71 128.36,17.70 130.13,21.96
             133.61,30.34 150.04,25.62 150.72,39.00
             150.81,40.65 150.46,42.45 149.85,43.99
             145.19,55.74 126.77,52.19 123.99,48.35
             122.82,46.74 123.02,43.92 123.00,42.00 Z
           M 69.00,10.00
           C 69.00,10.00 76.16,11.60 76.16,11.60
             76.16,11.60 80.67,23.00 80.67,23.00
             80.67,23.00 90.00,51.00 90.00,51.00
             81.92,50.74 82.02,46.23 81.00,39.00
             77.79,39.00 68.68,38.49 66.30,40.02
             60.96,43.46 65.90,50.17 56.00,51.00
             56.00,51.00 69.00,10.00 69.00,10.00 Z
           M 244.00,10.00
           C 244.00,10.00 250.00,10.00 250.00,10.00
             250.00,10.00 250.00,15.00 250.00,15.00
             250.00,15.00 244.00,15.00 244.00,15.00
             244.00,15.00 244.00,10.00 244.00,10.00 Z
           M 158.00,11.00
           C 158.00,11.00 163.00,11.00 163.00,11.00
             163.00,11.00 163.00,20.00 163.00,20.00
             163.00,20.00 173.00,20.00 173.00,20.00
             173.00,20.00 173.00,24.00 173.00,24.00
             173.00,24.00 163.00,24.00 163.00,24.00
             163.00,29.43 160.98,45.05 167.11,47.09
             168.94,47.81 171.15,47.28 173.00,47.09
             171.62,54.99 161.99,52.06 159.45,47.79
             157.15,43.90 158.00,29.18 158.00,24.00
             158.00,24.00 155.00,24.00 155.00,24.00
             155.00,24.00 155.00,20.00 155.00,20.00
             155.00,20.00 158.00,20.00 158.00,20.00
             158.00,20.00 158.00,11.00 158.00,11.00 Z
           M 73.00,16.00
           C 70.13,20.69 67.77,29.51 67.00,35.00
             67.00,35.00 79.00,35.00 79.00,35.00
             79.00,35.00 73.00,16.00 73.00,16.00 Z
           M 267.00,19.65
           C 271.79,18.67 276.04,18.79 279.87,22.28
             288.01,29.69 286.59,48.12 275.00,51.43
             256.19,56.79 251.39,26.35 267.00,19.65 Z
           M 91.00,20.00
           C 91.00,20.00 96.30,20.99 96.30,20.99
             96.30,20.99 99.42,27.00 99.42,27.00
             99.42,27.00 105.00,42.00 105.00,42.00
             105.00,42.00 110.31,28.00 110.31,28.00
             110.31,28.00 113.70,20.99 113.70,20.99
             113.70,20.99 119.00,20.00 119.00,20.00
             119.00,20.00 106.80,51.00 106.80,51.00
             104.30,57.26 104.35,61.39 97.00,62.00
             97.00,62.00 101.25,49.00 101.25,49.00
             101.25,49.00 91.00,20.00 91.00,20.00 Z
           M 178.00,20.00
           C 178.00,20.00 184.11,20.00 184.11,20.00
             184.11,20.00 184.11,41.98 184.11,41.98
             184.87,45.41 187.20,48.22 191.00,47.16
             193.44,46.47 195.52,44.32 196.40,41.98
             197.43,39.29 197.00,23.96 197.00,20.00
             197.00,20.00 203.00,20.00 203.00,20.00
             203.00,20.00 203.00,51.00 203.00,51.00
             199.56,50.88 198.40,51.37 197.00,48.00
             195.24,49.32 194.13,50.32 192.00,51.11
             186.44,53.18 181.21,50.65 179.39,45.00
             177.47,39.01 178.00,26.68 178.00,20.00 Z
           M 245.00,20.00
           C 245.00,20.00 250.00,20.00 250.00,20.00
             250.00,20.00 250.00,51.00 250.00,51.00
             250.00,51.00 245.00,51.00 245.00,51.00
             245.00,51.00 245.00,20.00 245.00,20.00 Z
           M 222.02,23.45
           C 214.89,26.35 214.23,33.10 215.19,40.00
             215.83,44.64 218.80,48.65 224.00,47.53
             231.49,45.91 230.10,36.76 230.00,31.00
             229.96,28.87 230.05,26.35 228.40,24.74
             226.54,22.92 224.32,23.22 222.02,23.45 Z
           M 269.02,23.61
           C 262.86,27.03 261.71,34.55 263.57,41.00
             264.90,45.61 269.01,49.17 273.96,47.26
             281.66,44.28 282.72,21.43 269.02,23.61 Z
           M 39.00,64.00
           C 39.00,64.00 21.00,64.00 21.00,64.00
             17.44,63.95 11.45,64.01 11.45,59.00
             11.45,54.16 16.47,54.05 20.00,54.00
             20.00,54.00 39.00,54.00 39.00,54.00
             39.00,54.00 39.00,58.00 39.00,58.00
             39.00,58.00 15.00,58.00 15.00,58.00
             15.00,58.00 15.00,60.00 15.00,60.00
             15.00,60.00 39.00,60.00 39.00,60.00
             39.00,60.00 39.00,64.00 39.00,64.00 Z" />
</svg>
